<?xml version="1.0" standalone="no"?>
<!DOCTYPE svg PUBLIC "-//W3C//DTD SVG 20010904//EN"
 "http://www.w3.org/TR/2001/REC-SVG-20010904/DTD/svg10.dtd">
<svg version="1.0" xmlns="http://www.w3.org/2000/svg"
 width="300.000000pt" height="300.000000pt" viewBox="0 0 300.000000 300.000000"
 preserveAspectRatio="xMidYMid meet">
<metadata>
Created by potrace 1.11, written by Peter Selinger 2001-2013
</metadata>
<g transform="translate(0.000000,300.000000) scale(0.100000,-0.100000)"
fill="#000000" stroke="none">
<path d="M0 1672 c0 -1049 3 -1331 13 -1341 10 -11 9 -14 -1 -18 -9 -3 -12
-45 -12 -159 l0 -154 818 2 817 3 3 27 c2 15 -3 46 -11 70 -16 47 -34 59 -177
119 -158 66 -370 191 -370 218 0 11 4 9 15 -6 16 -22 106 -55 204 -73 82 -16
165 -38 226 -60 120 -42 209 -61 251 -52 37 8 38 9 17 20 -28 15 -259 72 -293
72 -14 0 -86 14 -160 31 -152 36 -233 76 -228 113 3 23 22 25 113 14 l50 -6
-45 14 c-25 8 -63 15 -84 16 -30 1 -55 14 -115 58 -128 97 -218 197 -276 309
l-17 34 43 -35 c60 -48 105 -77 95 -59 -5 8 -32 46 -60 85 -59 82 -108 185
-131 271 -19 74 -19 99 0 115 18 15 20 -1 3 -19 -11 -11 -10 -12 0 -7 7 4 24
0 37 -8 24 -16 25 -16 25 9 0 18 5 25 20 25 16 0 20 -7 20 -32 0 -39 31 -87
78 -119 28 -19 49 -24 94 -24 66 0 75 -18 11 -23 -31 -2 -57 6 -116 37 -43 21
-77 38 -77 36 0 -2 15 -16 34 -30 38 -29 129 -65 164 -65 24 0 24 0 1 -90 -5
-19 -9 -46 -8 -60 0 -20 3 -16 13 15 22 70 64 142 86 148 24 6 27 27 3 27 -14
0 -14 3 -5 12 10 10 15 10 23 -2 8 -11 12 -12 16 -2 3 9 12 7 32 -7 l27 -20
-32 -98 c-39 -117 -40 -126 -11 -93 51 57 62 56 29 -1 -18 -31 -32 -59 -32
-63 0 -4 30 24 68 61 86 87 153 147 222 199 30 23 113 97 184 165 72 68 127
120 124 114 -78 -136 -165 -254 -187 -254 -11 -1 -10 4 4 19 30 34 0 22 -53
-20 -59 -46 -69 -60 -52 -70 17 -10 -17 -60 -54 -80 -14 -7 -26 -17 -26 -22 0
-5 9 -4 19 2 29 15 29 15 15 -48 -8 -32 -18 -87 -24 -123 -5 -35 -13 -77 -16
-94 l-7 -30 32 29 c28 27 31 35 31 91 0 72 17 170 35 204 l13 25 20 -40 c14
-27 17 -45 11 -55 -14 -23 -10 -32 7 -14 20 19 15 22 146 -92 71 -61 97 -91
106 -119 10 -32 9 -39 -6 -50 -42 -32 -301 -174 -318 -175 -35 -2 28 -17 76
-18 25 -1 101 -12 170 -25 113 -22 281 -43 238 -30 -20 6 -23 15 -8 30 6 6 -6
37 -36 89 -25 44 -63 114 -84 156 -31 61 -52 86 -107 132 -37 30 -86 74 -107
96 l-40 41 34 35 c19 19 38 35 43 35 4 0 29 -17 55 -39 26 -21 81 -62 124 -90
66 -45 78 -58 92 -98 22 -63 69 -135 145 -218 59 -65 111 -106 111 -88 0 4
-14 19 -30 33 l-31 25 40 98 c22 54 60 135 84 180 37 67 49 82 67 79 18 -2 20
2 15 20 -4 13 -18 37 -31 55 -30 40 -30 50 3 97 l26 39 31 -38 c17 -22 46 -52
64 -69 17 -16 32 -38 32 -49 0 -10 -21 -52 -46 -92 -25 -41 -62 -113 -82 -162
-31 -74 -36 -101 -38 -168 -1 -66 -6 -90 -29 -135 l-28 -54 -14 37 c-8 20 -19
37 -24 37 -11 0 -11 -1 1 -36 9 -26 5 -40 -30 -107 -22 -43 -40 -86 -40 -95 1
-11 7 -6 16 13 35 66 66 116 70 113 5 -5 -53 -143 -95 -225 -17 -35 -31 -65
-31 -68 0 -3 221 -5 490 -5 l490 0 0 1500 0 1500 -1500 0 -1500 0 0 -1328z
m2073 -164 l7 -136 -93 -46 c-51 -25 -107 -50 -125 -56 l-34 -9 18 27 c34 52
93 148 156 254 35 58 63 106 64 105 1 -1 4 -63 7 -139z m-1253 89 c-8 -7 -34
-33 -57 -59 -24 -26 -43 -45 -43 -41 0 12 92 113 103 113 8 -1 6 -5 -3 -13z
m559 -89 c-22 -40 -68 -128 -102 -195 -34 -68 -64 -123 -67 -123 -3 1 -20 14
-39 30 l-33 28 63 88 c52 71 204 244 216 244 1 0 -16 -33 -38 -72z m-142 20
c-8 -13 -42 -74 -76 -135 -35 -62 -65 -113 -68 -113 -13 0 -163 83 -163 90 0
5 44 31 98 59 53 28 124 67 157 85 33 19 61 35 63 35 1 1 -4 -9 -11 -21z
m-767 -47 c0 -10 -7 -21 -15 -25 -16 -6 -19 3 -9 28 8 22 24 20 24 -3z m216
-37 c-10 -14 -20 -23 -23 -20 -3 3 2 17 11 32 10 14 20 23 23 20 3 -3 -2 -17
-11 -32z m-203 -99 c6 -32 49 -178 62 -209 19 -45 -16 -1 -54 67 -47 86 -73
168 -53 174 6 3 12 12 12 21 0 26 26 -16 33 -53z m1607 -16 c0 -11 -3 -18 -7
-16 -5 3 -8 -8 -9 -24 -1 -34 -1 -34 -34 -44 -20 -6 -23 -5 -12 6 20 22 14 28
-25 23 l-38 -6 60 41 c33 22 61 40 63 40 1 1 2 -8 2 -20z m-347 -6 c-18 -48
-75 -127 -103 -144 -18 -11 -30 -16 -28 -12 3 9 132 173 135 173 1 0 -1 -8 -4
-17z m-840 -32 c15 -15 -2 -31 -32 -31 -30 0 -51 16 -51 38 0 11 9 13 37 9 20
-4 41 -11 46 -16z m116 -125 c9 -10 9 -16 1 -21 -16 -10 -40 2 -40 20 0 19 24
20 39 1z m966 -27 c-9 -28 21 -24 52 7 14 14 27 23 30 21 8 -9 -35 -82 -66
-111 -42 -40 -29 -51 21 -20 l42 26 -21 -33 c-27 -43 -76 -69 -133 -69 -33 0
-41 -3 -30 -10 8 -5 39 -10 68 -10 l53 0 -27 -49 c-14 -27 -40 -62 -56 -77
-29 -28 -29 -28 -34 -6 -4 13 -46 49 -113 93 -119 81 -163 118 -155 131 4 5
12 1 20 -10 17 -24 85 -42 161 -42 50 0 65 5 101 31 56 41 47 48 -14 13 -39
-23 -60 -28 -104 -27 -59 1 -130 25 -130 43 0 7 10 6 28 -3 51 -27 99 -29 145
-9 44 20 117 92 117 116 0 16 19 25 38 18 7 -2 10 -12 7 -23z m-235 -16 c0
-20 -28 -53 -47 -53 -18 0 -16 30 4 52 20 23 43 23 43 1z m-230 -17 c0 -2 -7
-9 -15 -16 -12 -10 -15 -10 -15 4 0 9 7 16 15 16 8 0 15 -2 15 -4z m370 -5 c0
-14 -18 -23 -30 -16 -6 4 -8 11 -5 16 8 12 35 12 35 0z m-320 -65 c0 -6 -13
-27 -29 -46 -24 -28 -31 -32 -44 -22 -16 14 -30 52 -18 52 4 0 13 -6 20 -12
11 -11 12 -9 6 10 -5 16 -1 30 11 43 16 18 18 18 36 3 10 -10 18 -22 18 -28z
m530 -95 c0 -5 -7 -42 -15 -82 -12 -57 -13 -84 -4 -128 9 -50 8 -63 -11 -114
l-22 -59 -34 33 c-27 26 -34 40 -33 68 1 20 -4 57 -10 83 -8 34 -8 55 1 80 13
40 63 114 80 121 22 9 48 7 48 -2z m-1217 -276 c14 -25 24 -45 21 -45 -4 0
-54 77 -54 85 0 14 10 1 33 -40z m-133 -246 c-13 -44 -20 -48 -20 -11 0 16 6
33 13 35 6 3 13 6 14 6 1 1 -2 -13 -7 -30z m-96 -5 c10 -26 7 -79 -6 -97 -11
-15 -13 -12 -13 20 0 28 -5 40 -22 48 -21 11 -21 13 -5 28 21 21 38 22 46 1z
m180 -110 c9 -8 16 -22 16 -30 0 -12 -6 -11 -29 5 -39 28 -48 27 -71 -11 -23
-39 -26 -31 -6 17 12 29 20 35 45 35 16 0 37 -7 45 -16z m-169 -120 c65 19 64
19 58 -3 -4 -17 -13 -21 -43 -21 -39 0 -55 -16 -44 -44 4 -11 -1 -11 -29 2
-34 17 -34 17 -11 25 28 10 29 20 9 77 -12 34 -13 46 -3 58 11 12 15 5 27 -42
13 -50 18 -56 36 -52z m-83 -106 c-7 -7 -12 -8 -12 -2 0 14 12 26 19 19 2 -3
-1 -11 -7 -17z"/>
<path d="M1218 631 c-26 -4 -51 -11 -55 -16 -4 -4 0 -5 10 -2 10 4 46 7 80 8
44 0 56 3 42 9 -11 5 -22 8 -25 8 -3 0 -26 -4 -52 -7z"/>
<path d="M1348 623 c12 -2 32 -2 45 0 12 2 2 4 -23 4 -25 0 -35 -2 -22 -4z"/>
<path d="M1428 613 c7 -3 16 -2 19 1 4 3 -2 6 -13 5 -11 0 -14 -3 -6 -6z"/>
</g>
</svg>
